<svg width="179px" height="67px" viewBox="0 0 179 67" version="1.1" xmlns="http://www.w3.org/2000/svg" xmlns:xlink="http://www.w3.org/1999/xlink"><defs><polygon id="a" points="0.000723312249 0.319377881 59.3578206 0.319377881 59.3578206 66.9354839 0.000723312249 66.9354839"/></defs><g stroke="none" stroke-width="1" fill="none" fill-rule="evenodd"><g transform="translate(-568.000000, -197.000000)"><g transform="translate(568.000000, 197.000000)"><path d="M163.354287,21.7941615 C165.925798,21.7941615 167.583621,22.583242 167.583621,23.81618 C167.583621,29.5534522 155.777906,33.0780113 143.64565,33.7322905 C146.455786,29.4383779 154.857939,21.7941615 163.354287,21.7941615 M179,23.5465776 C179,18.5392049 170.02954,18 166.167564,18 C157.636678,18 148.609702,20.6762976 141.381841,25.3187206 C134.13514,29.9775829 130,35.7707481 130,41.2022516 C130,43.4938727 131.139754,51 145.903178,51 C155.354031,51 164.073306,48.307263 174.18352,42.2609345 C174.422146,42.1064063 174.588556,41.8565307 174.588556,41.5474743 C174.588556,41.2581448 174.459823,40.9885424 174.221198,40.8175749 L172.509996,39.679984 C172.27137,39.5287436 171.976227,39.5090166 171.737601,39.6438178 C163.888056,43.7437481 157.008714,45.7263125 150.722798,45.7263125 C145.096245,45.7263125 141.454056,44.0528045 141.454056,41.4521271 C141.454056,39.8542393 141.695822,38.4667728 142.191913,37.1384875 C151.457516,36.6584636 179,34.2517684 179,23.5465776" fill="#CC0000" fill-rule="nonzero"/><path d="M116.335448,21.7941615 C118.906959,21.7941615 120.583622,22.583242 120.583622,23.81618 C120.583622,29.5534522 108.759067,33.0780113 96.6425094,33.7322905 C99.4557863,29.4383779 107.8391,21.7941615 116.335448,21.7941615 M127.202358,40.8373019 L125.472318,39.699711 C125.233692,39.5451828 124.938549,39.5287436 124.699923,39.6635448 C116.850378,43.7634751 109.974177,45.7460397 103.685121,45.7460397 C98.0585673,45.7460397 94.4195181,44.0725316 94.4195181,41.471854 C94.4195181,39.8542393 94.6581443,38.4667728 95.1353966,37.1582146 C104.438678,36.6584636 132,34.2517684 132,23.5465776 C132,18.5392049 123.0264,18 119.164424,18 C110.636678,18 101.606562,20.6762976 94.3818403,25.3187206 C87.1351404,29.9775829 83,35.7707481 83,41.2022516 C83,43.4938727 84.139754,51 98.9031783,51 C108.354031,51 117.067025,48.307263 127.183519,42.2609345 C127.422145,42.1064063 127.588556,41.8565307 127.588556,41.5474743 C127.588556,41.2581448 127.440984,40.9885424 127.202358,40.8373019" fill="#CC0000" fill-rule="nonzero"/><path d="M85.9024074,27.8482793 C90.21283,27.8482793 92,24.1088279 92,22.1041396 C92,20.6985536 91.1932021,19 87.2942142,19 C82.344139,19 75.436534,23.1245885 66.7578306,31.2618453 L69.412871,26.2089776 C70.6343181,23.8389027 70.7693202,22.874414 70.7693202,22.3543143 C70.7693202,20.8137656 69.7343044,19 64.8035152,19 C58.3459171,19 48.535768,25.5539152 45.3214334,28.0787033 C45.1125016,28.2334165 45,28.5033416 45,28.7732668 C45,29.043192 45.1510736,29.2933666 45.356791,29.4480797 L46.9961017,30.5672818 C47.2596771,30.7582045 47.6164683,30.7582045 47.8993297,30.5672818 C49.4422103,29.5435411 54.7105047,26.2484788 58.0244836,26.2484788 C59.2298591,26.2484788 59.6059363,26.9035412 59.6059363,27.1339651 C59.6059363,27.8482793 58.8923539,29.487581 58.1948433,30.6429925 L48.2754069,48.958404 C48.1243331,49.1888279 47.9186157,49.5542144 47.9186157,49.9788529 C47.9186157,51.884788 52.6983313,52 52.752975,52 C56.500889,52 57.5744767,51.8090773 57.9859116,51.0355113 L60.2455888,46.8154614 C64.6524414,39.6064838 73.2507865,27.5586034 81.2898372,27.5586034 C82.0066339,27.5586034 82.7587881,27.6178554 83.5495145,27.6935661 C84.3016687,27.7890274 85.111681,27.8482793 85.9024074,27.8482793" fill="#CC0000" fill-rule="nonzero"/><g><g><mask id="b" fill="white"><use xlink:href="#a"/></mask><g/><path d="M45.5979013,21.8216052 C45.4474322,21.5793625 45.1849116,21.4295545 44.9031822,21.4295545 L32.417448,21.4295545 L36.243205,13.6076651 C37.8567461,10.174831 39.8608665,5.88139785 47.1538158,5.88139785 C48.5592613,5.88139785 49.945498,6.2351997 51.2773095,6.55075268 C52.5707036,6.86949309 53.8096726,7.18823349 55.0454401,7.18823349 C57.7282723,7.18823349 59.3578206,4.62874808 59.3578206,3.22947772 C59.3578206,1.38078341 57.1840223,0.319377881 53.4158918,0.319377881 C48.3927848,0.319377881 43.0303221,1.98001536 39.6719797,3.52909371 C27.8041293,8.92536867 24.432981,14.7264439 20.7384844,21.4104301 L10.2024456,21.4104301 C9.90150735,21.4104301 9.61977797,21.5793625 9.46930887,21.859854 L8.10228104,24.5468357 C7.97102077,24.7890784 7.99022959,25.0886943 8.14069869,25.3309371 C8.29116779,25.5731797 8.55368836,25.7229877 8.83221628,25.7229877 L18.8272065,25.7229877 L0.0793964636,65.40298 C-0.0710726408,65.702596 0.00256117625,66.0563978 0.229865568,66.301828 L0.601236124,66.6938786 C0.751705228,66.8596236 0.975808149,66.9361214 1.18390372,66.9361214 C1.22232136,66.9361214 1.25753754,66.9361214 1.315164,66.916997 L8.96347656,65.7408448 C9.22599712,65.702596 9.43409269,65.5336635 9.56535297,65.3105453 L30.2436497,25.7038633 L43.4048941,25.7038633 C43.7058324,25.7038633 43.9651514,25.5540553 44.1156205,25.2926881 L45.6171101,22.6057066 C45.7483704,22.3634639 45.7483704,22.063848 45.5979013,21.8216052" fill="#CC0000" fill-rule="nonzero" mask="url(#b)"/></g></g></g></g></g></svg>